<?xml version="1.0" encoding="utf-8"?>
<!-- Generator: Adobe Illustrator 17.1.0, SVG Export Plug-In . SVG Version: 6.00 Build 0)  -->
<!DOCTYPE svg PUBLIC "-//W3C//DTD SVG 1.1//EN" "http://www.w3.org/Graphics/SVG/1.1/DTD/svg11.dtd">
<svg version="1.1" id="Layer_1" xmlns="http://www.w3.org/2000/svg" xmlns:xlink="http://www.w3.org/1999/xlink" x="0px" y="0px"
	 viewBox="0 0 511.68 372.96" enable-background="new 0 0 511.68 372.96" xml:space="preserve">
<g>
	<g>
		<path fill="#FFFFFF" d="M0,372.96C0,248.64,0,124.32,0,0c170.56,0,341.12,0,511.68,0c0,124.32,0,248.64,0,372.96
			C341.12,372.96,170.56,372.96,0,372.96z M256.266,295.832c-0.007-0.121-0.014-0.243-0.021-0.364
			c-0.597-0.08-1.193-0.207-1.792-0.234c-3.833-0.174-7.678-0.196-11.499-0.51c-10.261-0.844-20.027-3.527-29.244-8.165
			c-14.167-7.129-24.052-17.981-28.542-33.321c-3.78-12.914-3.187-25.858,0.795-38.631c3.481-11.165,10.347-19.74,20.547-25.517
			c10.263-5.813,21.399-8.561,33.133-8.808c13.691-0.288,26.368,3.461,38.219,10.163c7.269,4.111,13.522,9.404,18.24,16.353
			c6.925,10.199,9.447,21.648,9.193,33.79c-0.201,9.614-3.528,18.113-9.73,25.469c-1.855,2.2-3.899,4.254-5.609,6.559
			c-4.893,6.596-7.173,14.201-8.16,22.247c-0.259,2.115,0.437,2.929,2.74,3.448c10.513,2.368,20.242,0.559,29.109-5.592
			c6.786-4.708,11.405-11.233,15.15-18.443c5.026-9.679,7.287-20.074,7.822-30.893c0.614-12.404-0.842-24.501-5.547-36.086
			c-5.259-12.947-13.823-23.308-24.998-31.555c-16.584-12.24-34.991-19.565-55.763-20.352c-10.552-0.4-20.876,1.083-31.07,3.751
			c-15.824,4.143-28.986,12.389-38.804,25.524c-12.874,17.224-16.089,36.796-12.729,57.578c2.62,16.206,11.079,29.27,23.662,39.567
			c17.372,14.215,37.362,18.802,59.363,15.254C252.595,296.763,254.423,296.248,256.266,295.832z M486.402,280.383
			c-0.589-0.144-0.895-0.225-1.204-0.293c-9.279-2.055-18.629-3.839-27.821-6.226c-14.489-3.763-28.874-7.93-43.302-11.929
			c-12.259-3.398-24.576-6.47-37.383-6.927c-5.449-0.195-10.879-0.054-16.26,0.856c-3.15,0.532-4.606,1.972-4.716,5.117
			c-0.204,5.79-0.187,11.589-0.194,17.384c-0.002,1.46,0.726,2.13,2.191,2.413c0.471,0.091,0.946,0.164,1.421,0.228
			c12.317,1.651,24.615,3.464,36.957,4.892c8.413,0.974,16.88,1.555,25.338,2.05c9.867,0.578,19.75,0.521,29.616-0.196
			c7.818-0.568,15.607-1.39,23.266-3.133C478.402,283.689,482.377,282.39,486.402,280.383z M253.725,14.902
			c-0.085-0.003-0.17-0.006-0.255-0.009c-0.238,1.008-0.531,2.007-0.707,3.025c-1.76,10.204-3.079,20.459-3.708,30.803
			c-1.121,18.44-0.26,36.75,3.438,54.883c1.735,8.506,4.191,16.8,7.393,24.875c0.807,2.036,2.154,3.119,4.363,3.339
			c3.922,0.39,7.723-0.077,11.483-1.185c3.988-1.176,7.528-3.272,11.126-5.262c2.271-1.256,2.405-1.511,1.627-3.966
			c-2.232-7.037-4.435-14.083-6.717-21.104c-8.152-25.087-16.324-50.169-24.511-75.245
			C256.144,21.649,254.905,18.285,253.725,14.902z M483.988,187.418c-7.046,0-13.962,0.022-20.877-0.005
			c-14.152-0.055-28.305-0.279-42.455-0.158c-9.276,0.079-18.515,0.972-27.628,2.835c-11.62,2.376-22.451,6.75-32.532,12.987
			c-1.963,1.215-2.362,2.321-1.698,4.555c0.113,0.382,0.246,0.759,0.38,1.135c2.318,6.549,6.724,11.512,11.926,15.92
			c1.612,1.366,3.106,1.394,4.951,0.65c6.067-2.446,12.059-5.16,18.287-7.108c15.273-4.777,30.657-9.197,46.004-13.736
			c14.314-4.234,28.728-8.179,42.152-14.927c0.597-0.3,1.217-0.555,1.877-0.854C484.237,188.251,484.126,187.878,483.988,187.418z
			 M22.864,297.431c0.875,0.072,1.414,0.151,1.953,0.156c16.558,0.142,33.097-0.162,49.586-1.878
			c9.942-1.035,19.847-2.368,29.551-4.756c12.322-3.031,24.566-6.381,36.839-9.614c0.645-0.17,1.263-0.486,1.854-0.806
			c0.759-0.412,1.112-1.055,1.096-1.967c-0.039-2.158,0.073-4.32-0.013-6.475c-0.156-3.92-0.97-7.67-3.078-11.068
			c-2.233-3.601-5.418-5.211-9.619-4.659c-2.81,0.369-5.615,0.797-8.404,1.302c-9.946,1.801-19.455,5.045-28.804,8.813
			c-23.588,9.508-46.803,19.876-69.951,30.398C23.635,296.985,23.41,297.13,22.864,297.431z M28.268,189.46
			c-0.572,1.002-0.272,1.49,0.601,1.981c3.725,2.096,7.395,4.289,11.102,6.418c14.446,8.297,29.413,15.408,45.425,20.202
			c17.369,5.2,34.999,6.844,52.98,4.212c2.275-0.333,2.984-1.013,3.087-3.346c0.335-7.586-0.924-14.879-4.143-21.8
			c-0.715-1.537-1.813-2.184-3.515-2.094c-3.912,0.208-7.828,0.391-11.745,0.462c-13.016,0.237-25.958-0.91-38.9-2.102
			c-13.212-1.217-26.429-2.386-39.657-3.42C38.45,189.578,33.363,189.618,28.268,189.46z M56.275,131.495
			c-0.055,0.107-0.111,0.214-0.166,0.321c0.427,0.374,0.798,0.859,1.289,1.106c12.018,6.049,24.014,12.143,36.084,18.087
			c21.366,10.522,43.984,16.677,67.645,19.103c1.674,0.172,3.254-0.156,4.3-1.574c4.763-6.458,6.634-13.635,5.242-21.6
			c-0.324-1.853-1.339-3.059-3.176-3.47c-1.673-0.374-3.367-0.656-5.053-0.972c-20.269-3.794-40.634-6.922-61.17-8.875
			c-14.613-1.39-29.245-2.365-43.936-2.171C56.98,131.454,56.628,131.479,56.275,131.495z M145.172,73.694
			c-0.108,0.058-0.216,0.116-0.324,0.174c0.173,0.549,0.254,1.151,0.534,1.639c4.645,8.108,9.08,16.348,14.03,24.266
			c9.202,14.718,20.393,27.753,34.148,38.456c2.739,2.131,5.59,4.141,8.528,5.987c2.427,1.525,4.301,1.162,6.519-0.546
			c1.225-0.944,2.59-1.711,3.921-2.51c1.539-0.924,3.159-1.72,4.654-2.707c2.59-1.711,4.318-4.079,5.206-7.091
			c0.837-2.84,0.32-5.164-1.876-7.288c-8.021-7.757-16.729-14.666-26.154-20.588c-13.054-8.202-26.306-16.091-39.488-24.091
			C151.665,77.45,148.406,75.592,145.172,73.694z M355.685,90.626c-0.764,0.538-1.338,0.781-1.682,1.208
			c-7.122,8.844-14.267,17.672-21.306,26.582c-6.713,8.497-11.347,18.014-13.625,28.641c-1.093,5.1-1.642,10.258-1.745,15.466
			c-0.044,2.222,0.416,2.669,2.559,3.16c2.566,0.588,5.116,1.252,7.655,1.948c3.425,0.939,6.8,2.083,10.257,2.876
			c4.271,0.98,5.285,0.226,6.148-3.987c1.739-8.491,3.558-16.966,5.172-25.481c1.45-7.651,2.847-15.321,3.936-23.03
			c0.888-6.287,1.297-12.642,1.9-18.968C355.209,96.379,355.419,93.713,355.685,90.626z"/>
		<path fill="#F2DA00" d="M256.266,295.832c-1.844,0.415-3.672,0.93-5.534,1.231c-22.001,3.548-41.991-1.039-59.363-15.254
			c-12.583-10.297-21.042-23.361-23.662-39.567c-3.36-20.782-0.146-40.354,12.729-57.578c9.818-13.135,22.98-21.381,38.804-25.524
			c10.195-2.669,20.518-4.151,31.07-3.751c20.772,0.787,39.178,8.112,55.763,20.352c11.175,8.248,19.739,18.608,24.998,31.555
			c4.706,11.585,6.161,23.682,5.547,36.086c-0.535,10.819-2.796,21.214-7.822,30.893c-3.745,7.211-8.364,13.735-15.15,18.443
			c-8.867,6.152-18.596,7.96-29.109,5.592c-2.303-0.519-3-1.333-2.74-3.448c0.987-8.046,3.266-15.651,8.16-22.247
			c1.71-2.305,3.755-4.359,5.609-6.559c6.201-7.356,9.529-15.855,9.73-25.469c0.254-12.142-2.268-23.591-9.193-33.79
			c-4.718-6.948-10.971-12.242-18.24-16.353c-11.851-6.702-24.528-10.451-38.219-10.163c-11.734,0.247-22.87,2.994-33.133,8.808
			c-10.2,5.778-17.067,14.353-20.547,25.517c-3.982,12.773-4.575,25.717-0.795,38.631c4.49,15.34,14.375,26.192,28.542,33.321
			c9.217,4.638,18.983,7.321,29.244,8.165c3.821,0.314,7.666,0.336,11.499,0.51c0.6,0.027,1.195,0.154,1.792,0.234
			C256.252,295.59,256.259,295.711,256.266,295.832z"/>
		<path fill="#F2DA00" d="M486.402,280.383c-4.025,2.007-8,3.306-12.092,4.237c-7.659,1.743-15.448,2.565-23.266,3.133
			c-9.866,0.716-19.749,0.774-29.616,0.196c-8.458-0.496-16.925-1.076-25.338-2.05c-12.342-1.429-24.64-3.241-36.957-4.892
			c-0.475-0.064-0.95-0.137-1.421-0.228c-1.465-0.284-2.193-0.954-2.191-2.413c0.007-5.795-0.01-11.594,0.194-17.384
			c0.111-3.145,1.566-4.585,4.716-5.117c5.382-0.91,10.812-1.051,16.26-0.856c12.807,0.457,25.124,3.53,37.383,6.927
			c14.428,3.999,28.813,8.166,43.302,11.929c9.193,2.387,18.542,4.171,27.821,6.226
			C485.507,280.158,485.813,280.239,486.402,280.383z"/>
		<path fill="#F2DA00" d="M253.725,14.902c1.18,3.383,2.42,6.747,3.531,10.153c8.187,25.076,16.359,50.157,24.511,75.245
			c2.281,7.021,4.485,14.067,6.717,21.104c0.779,2.455,0.644,2.71-1.627,3.966c-3.598,1.99-7.138,4.086-11.126,5.262
			c-3.76,1.109-7.562,1.575-11.483,1.185c-2.208-0.219-3.556-1.303-4.363-3.339c-3.202-8.075-5.658-16.369-7.393-24.875
			c-3.697-18.133-4.559-36.443-3.438-54.883c0.629-10.343,1.948-20.599,3.708-30.803c0.176-1.019,0.469-2.017,0.707-3.025
			C253.555,14.896,253.64,14.899,253.725,14.902z"/>
		<path fill="#F2DA00" d="M483.988,187.418c0.137,0.46,0.249,0.833,0.386,1.293c-0.66,0.299-1.28,0.554-1.877,0.854
			c-13.423,6.748-27.838,10.692-42.152,14.927c-15.347,4.54-30.731,8.959-46.004,13.736c-6.228,1.948-12.22,4.662-18.287,7.108
			c-1.845,0.744-3.339,0.716-4.951-0.65c-5.203-4.407-9.608-9.37-11.926-15.92c-0.133-0.376-0.266-0.753-0.38-1.135
			c-0.663-2.234-0.265-3.34,1.698-4.555c10.082-6.237,20.912-10.611,32.532-12.987c9.113-1.863,18.352-2.756,27.628-2.835
			c14.15-0.121,28.303,0.103,42.455,0.158C470.026,187.44,476.942,187.418,483.988,187.418z"/>
		<path fill="#F2DA00" d="M22.864,297.431c0.546-0.301,0.771-0.446,1.011-0.555c23.148-10.522,46.362-20.89,69.951-30.398
			c9.348-3.768,18.857-7.012,28.804-8.813c2.789-0.505,5.594-0.933,8.404-1.302c4.201-0.551,7.386,1.058,9.619,4.659
			c2.107,3.398,2.921,7.148,3.078,11.068c0.086,2.155-0.026,4.317,0.013,6.475c0.017,0.912-0.337,1.556-1.096,1.967
			c-0.591,0.321-1.209,0.637-1.854,0.806c-12.272,3.233-24.516,6.583-36.839,9.614c-9.705,2.387-19.61,3.721-29.551,4.756
			c-16.489,1.716-33.028,2.02-49.586,1.878C24.278,297.582,23.739,297.503,22.864,297.431z"/>
		<path fill="#F2DA00" d="M28.268,189.46c5.095,0.159,10.182,0.118,15.235,0.513c13.227,1.033,26.445,2.203,39.657,3.42
			c12.943,1.192,25.884,2.339,38.9,2.102c3.917-0.071,7.833-0.254,11.745-0.462c1.702-0.091,2.801,0.557,3.515,2.094
			c3.218,6.922,4.478,14.214,4.143,21.8c-0.103,2.332-0.812,3.013-3.087,3.346c-17.981,2.632-35.611,0.988-52.98-4.212
			c-16.012-4.794-30.979-11.905-45.425-20.202c-3.707-2.129-7.377-4.322-11.102-6.418C27.996,190.95,27.697,190.461,28.268,189.46z"
			/>
		<path fill="#F2DA00" d="M56.275,131.495c0.352-0.016,0.705-0.041,1.058-0.045c14.691-0.194,29.323,0.782,43.936,2.171
			c20.536,1.953,40.901,5.081,61.17,8.875c1.686,0.316,3.38,0.597,5.053,0.972c1.837,0.411,2.852,1.617,3.176,3.47
			c1.392,7.966-0.479,15.143-5.242,21.6c-1.046,1.418-2.625,1.746-4.3,1.574c-23.661-2.426-46.279-8.581-67.645-19.103
			c-12.07-5.944-24.066-12.038-36.084-18.087c-0.491-0.247-0.862-0.732-1.289-1.106C56.164,131.708,56.22,131.602,56.275,131.495z"
			/>
		<path fill="#F2DA00" d="M145.172,73.694c3.234,1.898,6.493,3.755,9.699,5.701c13.181,8,26.433,15.889,39.488,24.091
			c9.425,5.922,18.133,12.831,26.154,20.588c2.196,2.124,2.713,4.447,1.876,7.288c-0.888,3.012-2.617,5.38-5.206,7.091
			c-1.495,0.988-3.115,1.783-4.654,2.707c-1.331,0.799-2.696,1.567-3.921,2.51c-2.218,1.708-4.092,2.071-6.519,0.546
			c-2.938-1.846-5.789-3.856-8.528-5.987c-13.755-10.703-24.946-23.738-34.148-38.456c-4.95-7.918-9.385-16.158-14.03-24.266
			c-0.28-0.488-0.361-1.09-0.534-1.639C144.955,73.81,145.064,73.752,145.172,73.694z"/>
		<path fill="#F2DA00" d="M355.685,90.626c-0.267,3.087-0.477,5.753-0.731,8.414c-0.604,6.326-1.012,12.681-1.9,18.968
			c-1.089,7.709-2.486,15.379-3.936,23.03c-1.614,8.514-3.433,16.99-5.172,25.481c-0.863,4.214-1.878,4.968-6.148,3.987
			c-3.457-0.793-6.832-1.937-10.257-2.876c-2.539-0.696-5.089-1.36-7.655-1.948c-2.143-0.491-2.603-0.938-2.559-3.16
			c0.103-5.208,0.652-10.366,1.745-15.466c2.278-10.627,6.912-20.144,13.625-28.641c7.039-8.91,14.184-17.737,21.306-26.582
			C354.347,91.407,354.921,91.164,355.685,90.626z"/>
	</g>
</g>
</svg>
